<?xml version="1.0" encoding="UTF-8"?>
<!DOCTYPE svg PUBLIC "-//W3C//DTD SVG 1.1//EN" "http://www.w3.org/Graphics/SVG/1.1/DTD/svg11.dtd">
<svg xmlns="http://www.w3.org/2000/svg" version="1.1" width="570px" height="190px" style="shape-rendering:geometricPrecision; text-rendering:geometricPrecision; image-rendering:optimizeQuality; fill-rule:evenodd; clip-rule:evenodd" xmlns:xlink="http://www.w3.org/1999/xlink">
<g><path style="opacity:1" fill="#7abd79" d="M 263.5,35.5 C 263.158,34.6618 262.492,34.3284 261.5,34.5C 262.059,32.3208 262.726,30.1542 263.5,28C 262.66,26.2326 261.327,24.8993 259.5,24C 258.5,23.3333 257.5,23.3333 256.5,24C 257.5,24.8333 258.5,25.6667 259.5,26.5C 256.42,28.1136 253.42,28.7803 250.5,28.5C 249.609,29.1098 248.609,29.4431 247.5,29.5C 247.5,28.8333 247.5,28.1667 247.5,27.5C 248.918,25.6921 250.918,25.0254 253.5,25.5C 254.167,26.8333 254.833,26.8333 255.5,25.5C 253.3,23.3596 250.633,21.8596 247.5,21C 245.866,20.5065 244.199,20.3398 242.5,20.5C 242.5,21.8333 242.5,23.1667 242.5,24.5C 241.5,24.5 240.5,24.5 239.5,24.5C 240.091,23.8485 240.757,23.1818 241.5,22.5C 240.398,21.8243 239.398,21.1577 238.5,20.5C 238.5,20.1667 238.5,19.8333 238.5,19.5C 240.903,18.6071 243.403,17.9404 246,17.5C 252.315,19.2404 258.481,21.4071 264.5,24C 265.802,28.0326 265.469,31.8659 263.5,35.5 Z"/></g>
<g><path style="opacity:1" fill="#6dc36b" d="M 238.5,20.5 C 239.398,21.1577 240.398,21.8243 241.5,22.5C 240.757,23.1818 240.091,23.8485 239.5,24.5C 238.535,28.1075 236.202,29.7742 232.5,29.5C 232.5,30.5 232.5,31.5 232.5,32.5C 231.167,32.5 229.833,32.5 228.5,32.5C 226.987,31.6907 225.32,31.5241 223.5,32C 222.549,31.2825 222.383,30.4491 223,29.5C 226.109,25.7519 229.942,24.5852 234.5,26C 235.772,23.9555 235.439,22.1222 233.5,20.5C 235.095,19.5661 236.761,19.5661 238.5,20.5 Z"/></g>
<g><path style="opacity:1" fill="#74bf72" d="M 247.5,27.5 C 247.5,28.1667 247.5,28.8333 247.5,29.5C 248.609,29.4431 249.609,29.1098 250.5,28.5C 250.884,30.9294 251.551,33.2627 252.5,35.5C 250.833,35.5 249.167,35.5 247.5,35.5C 247.55,37.5901 246.55,38.9234 244.5,39.5C 243.304,39.1543 243.304,38.6543 244.5,38C 243.552,37.5172 242.552,37.3505 241.5,37.5C 241.5,39.1667 241.5,40.8333 241.5,42.5C 240.25,42.4226 239.417,41.756 239,40.5C 234.418,44.9735 230.251,44.9735 226.5,40.5C 228.099,40.7678 229.432,40.4345 230.5,39.5C 230.5,38.8333 230.833,38.5 231.5,38.5C 231.833,38.5 232.167,38.5 232.5,38.5C 234.25,42.0965 236.25,42.2631 238.5,39C 238.272,38.6012 237.938,38.4346 237.5,38.5C 240.633,36.8261 243.966,35.1595 247.5,33.5C 247.709,32.914 248.043,32.414 248.5,32C 247.101,31.4054 245.768,31.5721 244.5,32.5C 243.702,32.0431 243.369,31.3764 243.5,30.5C 244.239,30.631 244.906,30.4643 245.5,30C 244.207,29.51 242.873,29.3433 241.5,29.5C 243.374,28.7148 245.374,28.0482 247.5,27.5 Z"/></g>
<g><path style="opacity:1" fill="#79ba78" d="M 255.5,25.5 C 254.833,25.5 254.167,25.5 253.5,25.5C 250.751,23.6401 247.751,22.4734 244.5,22C 246.037,23.1096 246.703,24.6096 246.5,26.5C 244.5,26.5 242.5,26.5 240.5,26.5C 240.263,27.791 240.596,28.791 241.5,29.5C 242.873,29.3433 244.207,29.51 245.5,30C 244.906,30.4643 244.239,30.631 243.5,30.5C 240.574,32.0903 237.574,33.5903 234.5,35C 235.636,36.1451 236.636,37.3117 237.5,38.5C 237.938,38.4346 238.272,38.6012 238.5,39C 236.25,42.2631 234.25,42.0965 232.5,38.5C 232.918,37.7784 233.584,37.2784 234.5,37C 233.338,36.1729 232.171,35.3396 231,34.5C 230.235,34.5699 229.735,34.9033 229.5,35.5C 228.691,34.5313 227.691,33.6979 226.5,33C 227.094,32.5357 227.761,32.369 228.5,32.5C 229.833,32.5 231.167,32.5 232.5,32.5C 232.5,31.5 232.5,30.5 232.5,29.5C 236.202,29.7742 238.535,28.1075 239.5,24.5C 240.5,24.5 241.5,24.5 242.5,24.5C 242.5,23.1667 242.5,21.8333 242.5,20.5C 244.199,20.3398 245.866,20.5065 247.5,21C 250.633,21.8596 253.3,23.3596 255.5,25.5 Z"/></g>
<g><path style="opacity:1" fill="#69bf67" d="M 261.5,34.5 C 261.389,35.1174 261.056,35.6174 260.5,36C 254.172,38.054 247.839,40.2207 241.5,42.5C 241.5,40.8333 241.5,39.1667 241.5,37.5C 242.552,37.3505 243.552,37.5172 244.5,38C 243.304,38.6543 243.304,39.1543 244.5,39.5C 246.55,38.9234 247.55,37.5901 247.5,35.5C 249.167,35.5 250.833,35.5 252.5,35.5C 251.551,33.2627 250.884,30.9294 250.5,28.5C 253.42,28.7803 256.42,28.1136 259.5,26.5C 258.5,25.6667 257.5,24.8333 256.5,24C 257.5,23.3333 258.5,23.3333 259.5,24C 261.327,24.8993 262.66,26.2326 263.5,28C 262.726,30.1542 262.059,32.3208 261.5,34.5 Z"/></g>
<g><path style="opacity:0.976" fill="#7bba79" d="M 238.5,19.5 C 238.5,19.8333 238.5,20.1667 238.5,20.5C 236.761,19.5661 235.095,19.5661 233.5,20.5C 235.439,22.1222 235.772,23.9555 234.5,26C 229.942,24.5852 226.109,25.7519 223,29.5C 222.383,30.4491 222.549,31.2825 223.5,32C 225.32,31.5241 226.987,31.6907 228.5,32.5C 227.761,32.369 227.094,32.5357 226.5,33C 227.691,33.6979 228.691,34.5313 229.5,35.5C 231.048,35.8212 231.715,36.8212 231.5,38.5C 230.833,38.5 230.5,38.8333 230.5,39.5C 228.962,37.5786 227.129,35.9119 225,34.5C 224.283,35.0442 223.783,35.7109 223.5,36.5C 220.455,37.2794 217.789,38.6127 215.5,40.5C 213.847,41.6045 212.18,41.7712 210.5,41C 209.402,41.7697 209.402,42.603 210.5,43.5C 208.585,43.7845 206.919,43.4511 205.5,42.5C 206.749,40.8639 208.416,39.6972 210.5,39C 215.172,38.1236 219.172,36.1236 222.5,33C 219.534,29.0957 220.534,26.929 225.5,26.5C 225.759,22.9319 227.759,21.5985 231.5,22.5C 231.817,18.8354 233.817,17.3354 237.5,18C 238.056,18.3826 238.389,18.8826 238.5,19.5 Z"/></g>
<g><path style="opacity:1" fill="#6fc96b" d="M 230.5,39.5 C 229.432,40.4345 228.099,40.7678 226.5,40.5C 226.167,40.5 225.833,40.5 225.5,40.5C 223.238,39.6551 222.571,38.3217 223.5,36.5C 223.783,35.7109 224.283,35.0442 225,34.5C 227.129,35.9119 228.962,37.5786 230.5,39.5 Z"/></g>
<g><path style="opacity:1" fill="#73c872" d="M 243.5,30.5 C 243.369,31.3764 243.702,32.0431 244.5,32.5C 245.768,31.5721 247.101,31.4054 248.5,32C 248.043,32.414 247.709,32.914 247.5,33.5C 243.966,35.1595 240.633,36.8261 237.5,38.5C 236.636,37.3117 235.636,36.1451 234.5,35C 237.574,33.5903 240.574,32.0903 243.5,30.5 Z"/></g>
<g><path style="opacity:1" fill="#75c673" d="M 223.5,36.5 C 222.571,38.3217 223.238,39.6551 225.5,40.5C 226.231,42.5988 226.231,44.5988 225.5,46.5C 222.419,48.7072 219.086,50.3739 215.5,51.5C 214.681,47.9636 214.681,44.297 215.5,40.5C 217.789,38.6127 220.455,37.2794 223.5,36.5 Z"/></g>
<g><path style="opacity:0.663" fill="#79bb78" d="M 261.5,34.5 C 262.492,34.3284 263.158,34.6618 263.5,35.5C 263.389,36.1174 263.056,36.6174 262.5,37C 256.463,37.6842 251.13,40.0175 246.5,44C 236.94,43.2606 228.607,46.2606 221.5,53C 217.719,55.2246 213.719,56.8913 209.5,58C 205.533,62.0384 200.866,64.8717 195.5,66.5C 194.508,66.6716 193.842,66.3382 193.5,65.5C 194.5,65.1667 195.167,64.5 195.5,63.5C 198.849,62.8305 201.516,61.1639 203.5,58.5C 205.853,57.6597 207.853,56.3264 209.5,54.5C 212.089,54.539 214.089,53.539 215.5,51.5C 219.086,50.3739 222.419,48.7072 225.5,46.5C 226.231,44.5988 226.231,42.5988 225.5,40.5C 225.833,40.5 226.167,40.5 226.5,40.5C 230.251,44.9735 234.418,44.9735 239,40.5C 239.417,41.756 240.25,42.4226 241.5,42.5C 247.839,40.2207 254.172,38.054 260.5,36C 261.056,35.6174 261.389,35.1174 261.5,34.5 Z"/></g>
<g><path style="opacity:0.959" fill="#73ba71" d="M 215.5,40.5 C 214.681,44.297 214.681,47.9636 215.5,51.5C 214.167,51.8333 212.833,52.1667 211.5,52.5C 208.203,52.6713 207.869,52.0046 210.5,50.5C 207.968,50.0687 205.634,50.902 203.5,53C 201.613,53.7796 199.946,53.6129 198.5,52.5C 201.301,51.2653 203.968,49.7653 206.5,48C 206,47.8333 205.5,47.6667 205,47.5C 201.901,49.2994 198.735,50.966 195.5,52.5C 197.504,50.2991 199.837,48.2991 202.5,46.5C 203.981,45.056 203.648,44.3894 201.5,44.5C 202.514,43.3263 203.847,42.6596 205.5,42.5C 206.919,43.4511 208.585,43.7845 210.5,43.5C 209.402,42.603 209.402,41.7697 210.5,41C 212.18,41.7712 213.847,41.6045 215.5,40.5 Z"/></g>
<g><path style="opacity:1" fill="#63b661" d="M 211.5,52.5 C 210.833,53.1667 210.167,53.8333 209.5,54.5C 206.802,54.8449 204.802,56.1782 203.5,58.5C 201.516,61.1639 198.849,62.8305 195.5,63.5C 194.472,63.0742 193.139,63.0742 191.5,63.5C 191.277,60.0344 192.611,59.0344 195.5,60.5C 197.295,59.1441 199.295,58.3108 201.5,58C 200.737,57.0565 199.737,56.5565 198.5,56.5C 196.845,57.3877 195.178,57.8877 193.5,58C 195.041,56.6288 196.375,55.1288 197.5,53.5C 197.5,52.8333 197.833,52.5 198.5,52.5C 199.946,53.6129 201.613,53.7796 203.5,53C 205.634,50.902 207.968,50.0687 210.5,50.5C 207.869,52.0046 208.203,52.6713 211.5,52.5 Z"/></g>
<g><path style="opacity:1" fill="#78bb77" d="M 201.5,44.5 C 203.648,44.3894 203.981,45.056 202.5,46.5C 199.837,48.2991 197.504,50.2991 195.5,52.5C 195.5,52.8333 195.5,53.1667 195.5,53.5C 187.906,55.4627 180.906,58.796 174.5,63.5C 175.325,64.3857 176.325,64.719 177.5,64.5C 177.5,65.8333 177.5,67.1667 177.5,68.5C 177.167,68.5 176.833,68.5 176.5,68.5C 175.883,68.6107 175.383,68.944 175,69.5C 174.722,68.5842 174.222,67.9175 173.5,67.5C 172.68,65.8599 171.847,64.1932 171,62.5C 169.644,63.3802 168.144,63.7135 166.5,63.5C 166.5,63.1667 166.5,62.8333 166.5,62.5C 178.013,56.243 189.68,50.243 201.5,44.5 Z"/></g>
<g><path style="opacity:1" fill="#42953f" d="M 215.5,51.5 C 214.089,53.539 212.089,54.539 209.5,54.5C 210.167,53.8333 210.833,53.1667 211.5,52.5C 212.833,52.1667 214.167,51.8333 215.5,51.5 Z"/></g>
<g><path style="opacity:1" fill="#3e913b" d="M 209.5,54.5 C 207.853,56.3264 205.853,57.6597 203.5,58.5C 204.802,56.1782 206.802,54.8449 209.5,54.5 Z"/></g>
<g><path style="opacity:0.503" fill="#71b76f" d="M 195.5,53.5 C 196.167,53.5 196.833,53.5 197.5,53.5C 196.375,55.1288 195.041,56.6288 193.5,58C 195.178,57.8877 196.845,57.3877 198.5,56.5C 199.737,56.5565 200.737,57.0565 201.5,58C 199.295,58.3108 197.295,59.1441 195.5,60.5C 192.611,59.0344 191.277,60.0344 191.5,63.5C 188.624,66.2421 185.291,68.4088 181.5,70C 180.549,70.7175 180.383,71.5509 181,72.5C 185.275,70.2813 189.441,67.948 193.5,65.5C 193.842,66.3382 194.508,66.6716 195.5,66.5C 191.777,69.5515 187.777,72.2181 183.5,74.5C 184.463,73.6365 184.463,72.9698 183.5,72.5C 181.971,73.7629 180.305,74.7629 178.5,75.5C 179.116,74.2022 179.116,73.2022 178.5,72.5C 178.38,71.4138 177.713,70.7472 176.5,70.5C 175.584,70.5427 174.917,70.8761 174.5,71.5C 173.833,71.5 173.167,71.5 172.5,71.5C 172.833,70.1667 173.167,68.8333 173.5,67.5C 174.222,67.9175 174.722,68.5842 175,69.5C 175.383,68.944 175.883,68.6107 176.5,68.5C 176.833,69.8333 177.167,69.8333 177.5,68.5C 180.09,67.8717 182.423,66.705 184.5,65C 183.552,64.5172 182.552,64.3505 181.5,64.5C 181.281,63.325 181.614,62.325 182.5,61.5C 187.065,59.0588 191.398,56.3921 195.5,53.5 Z"/></g>
<g><path style="opacity:1" fill="#71c76f" d="M 173.5,67.5 C 173.167,68.8333 172.833,70.1667 172.5,71.5C 172.167,72.5 171.5,73.1667 170.5,73.5C 166.473,73.7192 165.806,72.5525 168.5,70C 168.167,69.8333 167.833,69.6667 167.5,69.5C 164.105,70.8709 160.771,72.2043 157.5,73.5C 157.423,72.2502 156.756,71.4169 155.5,71C 157.5,69.6667 159.5,68.3333 161.5,67C 163.936,66.8762 166.269,67.3762 168.5,68.5C 168.169,66.6776 167.502,65.0109 166.5,63.5C 168.144,63.7135 169.644,63.3802 171,62.5C 171.847,64.1932 172.68,65.8599 173.5,67.5 Z"/></g>
<g><path style="opacity:1" fill="#459842" d="M 195.5,63.5 C 195.167,64.5 194.5,65.1667 193.5,65.5C 189.441,67.948 185.275,70.2813 181,72.5C 180.383,71.5509 180.549,70.7175 181.5,70C 185.291,68.4088 188.624,66.2421 191.5,63.5C 193.139,63.0742 194.472,63.0742 195.5,63.5 Z"/></g>
<g><path style="opacity:0.549" fill="#73b871" d="M 166.5,62.5 C 166.5,62.8333 166.5,63.1667 166.5,63.5C 167.502,65.0109 168.169,66.6776 168.5,68.5C 166.269,67.3762 163.936,66.8762 161.5,67C 159.5,68.3333 157.5,69.6667 155.5,71C 156.756,71.4169 157.423,72.2502 157.5,73.5C 156.5,72.1667 155.5,72.1667 154.5,73.5C 150.76,73.9721 146.76,74.3054 142.5,74.5C 142.5,75.8333 142.5,77.1667 142.5,78.5C 141.395,79.6005 140.062,80.2671 138.5,80.5C 136.5,79.1667 134.5,79.1667 132.5,80.5C 134.965,78.1633 137.965,76.6633 141.5,76C 137.108,74.1323 132.774,72.299 128.5,70.5C 128.918,69.7784 129.584,69.2784 130.5,69C 130.167,68.6667 129.833,68.3333 129.5,68C 125.27,66.7101 120.936,66.2101 116.5,66.5C 115.833,66.5 115.167,66.5 114.5,66.5C 125.774,64.5173 136.274,66.8506 146,73.5C 152.904,69.9244 159.737,66.2577 166.5,62.5 Z"/></g>
<g><path style="opacity:0.286" fill="#70bb6e" d="M 116.5,66.5 C 120.936,66.2101 125.27,66.7101 129.5,68C 129.833,68.3333 130.167,68.6667 130.5,69C 129.584,69.2784 128.918,69.7784 128.5,70.5C 123.349,70.022 118.349,70.022 113.5,70.5C 113.082,69.7784 112.416,69.2784 111.5,69C 113.491,68.6264 115.158,67.793 116.5,66.5 Z"/></g>
<g><path style="opacity:1" fill="#65cb5f" d="M 121.5,67.5 C 122.978,67.238 124.311,67.5713 125.5,68.5C 124.833,68.8333 124.167,69.1667 123.5,69.5C 122.287,69.2528 121.62,68.5862 121.5,67.5 Z"/></g>
<g><path style="opacity:1" fill="#6cc769" d="M 154.5,73.5 C 156.137,75.1237 155.803,76.1237 153.5,76.5C 152.311,76.2444 151.144,75.9111 150,75.5C 147.323,76.222 144.823,77.222 142.5,78.5C 142.5,77.1667 142.5,75.8333 142.5,74.5C 146.76,74.3054 150.76,73.9721 154.5,73.5 Z"/></g>
<g><path style="opacity:1" fill="#7fd17e" d="M 178.5,72.5 C 179.116,73.2022 179.116,74.2022 178.5,75.5C 173.869,78.649 168.869,80.9823 163.5,82.5C 164.11,81.609 164.443,80.609 164.5,79.5C 165.167,79.1667 165.833,78.8333 166.5,78.5C 170.623,76.6853 174.623,74.6853 178.5,72.5 Z"/></g>
<g><path style="opacity:1" fill="#63b660" d="M 170.5,73.5 C 171.721,74.4646 173.054,74.298 174.5,73C 175.738,72.31 175.738,71.81 174.5,71.5C 174.917,70.8761 175.584,70.5427 176.5,70.5C 177.713,70.7472 178.38,71.4138 178.5,72.5C 174.623,74.6853 170.623,76.6853 166.5,78.5C 167.463,77.6365 167.463,76.9698 166.5,76.5C 164.925,77.4565 163.258,78.1231 161.5,78.5C 158.93,77.516 158.93,76.3493 161.5,75C 161.167,74.8333 160.833,74.6667 160.5,74.5C 158.358,76.9045 155.691,78.2378 152.5,78.5C 147.905,79.5856 143.571,81.2522 139.5,83.5C 139.443,82.391 139.11,81.391 138.5,80.5C 140.062,80.2671 141.395,79.6005 142.5,78.5C 144.823,77.222 147.323,76.222 150,75.5C 151.144,75.9111 152.311,76.2444 153.5,76.5C 155.803,76.1237 156.137,75.1237 154.5,73.5C 155.5,72.1667 156.5,72.1667 157.5,73.5C 160.771,72.2043 164.105,70.8709 167.5,69.5C 167.833,69.6667 168.167,69.8333 168.5,70C 165.806,72.5525 166.473,73.7192 170.5,73.5 Z"/></g>
<g><path style="opacity:1" fill="#42963f" d="M 172.5,71.5 C 173.167,71.5 173.833,71.5 174.5,71.5C 175.738,71.81 175.738,72.31 174.5,73C 173.054,74.298 171.721,74.4646 170.5,73.5C 171.5,73.1667 172.167,72.5 172.5,71.5 Z"/></g>
<g><path style="opacity:1" fill="#50a34d" d="M 166.5,78.5 C 165.833,78.8333 165.167,79.1667 164.5,79.5C 162.695,80.9094 160.695,81.4094 158.5,81C 159.571,80.1482 160.571,79.3149 161.5,78.5C 163.258,78.1231 164.925,77.4565 166.5,76.5C 167.463,76.9698 167.463,77.6365 166.5,78.5 Z"/></g>
<g><path style="opacity:1" fill="#79bb77" d="M 114.5,66.5 C 115.167,66.5 115.833,66.5 116.5,66.5C 115.158,67.793 113.491,68.6264 111.5,69C 112.416,69.2784 113.082,69.7784 113.5,70.5C 107.533,73.2776 102.199,77.111 97.5,82C 94.9865,83.2525 92.3198,83.7525 89.5,83.5C 90.2894,80.5657 92.2894,78.7324 95.5,78C 100.304,71.5998 106.637,67.7665 114.5,66.5 Z"/></g>
<g><path style="opacity:0.341" fill="#6cb56b" d="M 72.5,82.5 C 76.9811,81.3516 81.6478,81.1849 86.5,82C 87.6091,83.813 86.9424,84.6463 84.5,84.5C 84.6107,83.8826 84.944,83.3826 85.5,83C 81.1794,82.501 76.8461,82.3343 72.5,82.5 Z"/></g>
<g><path style="opacity:0.341" fill="#71b86f" d="M 246.5,96.5 C 246.557,95.391 246.89,94.391 247.5,93.5C 248.449,91.2627 249.116,88.9294 249.5,86.5C 253.194,85.4917 256.861,84.325 260.5,83C 256.971,82.3779 253.471,82.5446 250,83.5C 247.62,82.7993 245.453,81.6326 243.5,80C 241.5,79.3333 239.5,79.3333 237.5,80C 226.431,82.6959 217.098,88.1959 209.5,96.5C 201.352,102.952 196.686,111.452 195.5,122C 195.482,124.379 196.149,126.546 197.5,128.5C 199.737,129.132 201.403,130.465 202.5,132.5C 205.084,133.393 207.751,133.726 210.5,133.5C 214.664,132.884 218.664,131.884 222.5,130.5C 223.167,130.5 223.5,130.833 223.5,131.5C 214.479,135.561 205.479,135.394 196.5,131C 192.253,122.611 192.753,114.444 198,106.5C 207.501,92.4995 220.334,82.9995 236.5,78C 239.167,77.3333 241.833,77.3333 244.5,78C 246.265,79.2978 248.099,80.4645 250,81.5C 254.455,79.7803 258.955,79.4469 263.5,80.5C 264.747,82.0064 264.747,83.5064 263.5,85C 259.465,85.8735 255.465,86.8735 251.5,88C 250.45,91.2763 248.784,94.1096 246.5,96.5 Z"/></g>
<g><path style="opacity:0.42" fill="#72b970" d="M 72.5,82.5 C 76.3577,83.2937 80.3577,83.9603 84.5,84.5C 70.5037,86.0818 56.837,89.4152 43.5,94.5C 43.9175,93.7784 44.5842,93.2784 45.5,93C 43.6992,92.6827 43.3659,92.016 44.5,91C 45.7441,90.5439 46.5774,91.0439 47,92.5C 51.2562,90.9224 50.7562,89.9224 45.5,89.5C 53.8729,85.1558 62.8729,82.8225 72.5,82.5 Z"/></g>
<g><path style="opacity:0.996" fill="#7fb67e" d="M 72.5,82.5 C 76.8461,82.3343 81.1794,82.501 85.5,83C 84.944,83.3826 84.6107,83.8826 84.5,84.5C 80.3577,83.9603 76.3577,83.2937 72.5,82.5 Z"/></g>
<g><path style="opacity:1" fill="#439740" d="M 152.5,78.5 C 148.334,81.0841 144,83.4174 139.5,85.5C 139.5,84.8333 139.5,84.1667 139.5,83.5C 143.571,81.2522 147.905,79.5856 152.5,78.5 Z"/></g>
<g><path style="opacity:1" fill="#71c46f" d="M 161.5,78.5 C 160.571,79.3149 159.571,80.1482 158.5,81C 160.695,81.4094 162.695,80.9094 164.5,79.5C 164.443,80.609 164.11,81.609 163.5,82.5C 161.517,82.1568 160.183,82.8235 159.5,84.5C 153.858,85.4548 149.525,88.4548 146.5,93.5C 144.5,93.5 142.5,93.5 140.5,93.5C 142.873,92.6219 143.706,90.9552 143,88.5C 141.129,89.6678 139.629,89.1678 138.5,87C 139.056,86.6174 139.389,86.1174 139.5,85.5C 144,83.4174 148.334,81.0841 152.5,78.5C 155.691,78.2378 158.358,76.9045 160.5,74.5C 160.833,74.6667 161.167,74.8333 161.5,75C 158.93,76.3493 158.93,77.516 161.5,78.5 Z"/></g>
<g><path style="opacity:1" fill="#78bb77" d="M 183.5,74.5 C 176.803,77.5107 170.803,81.5107 165.5,86.5C 169.082,90.0076 171.915,94.0076 174,98.5C 175.559,108.455 174.059,117.788 169.5,126.5C 169.5,125.833 169.5,125.167 169.5,124.5C 172.283,117.082 173.45,109.416 173,101.5C 172.296,97.3747 170.463,93.8747 167.5,91C 166.833,90.3333 166.167,90.3333 165.5,91C 168.196,94.5132 170.196,98.3465 171.5,102.5C 171.41,105.695 170.077,108.028 167.5,109.5C 167.5,109.167 167.5,108.833 167.5,108.5C 168.876,106.918 169.876,105.085 170.5,103C 169.141,99.1136 167.141,95.6136 164.5,92.5C 162.833,89.8333 161.167,87.1667 159.5,84.5C 160.183,82.8235 161.517,82.1568 163.5,82.5C 168.869,80.9823 173.869,78.649 178.5,75.5C 180.305,74.7629 181.971,73.7629 183.5,72.5C 184.463,72.9698 184.463,73.6365 183.5,74.5 Z"/></g>
<g><path style="opacity:1" fill="#79b978" d="M 138.5,80.5 C 139.11,81.391 139.443,82.391 139.5,83.5C 139.5,84.1667 139.5,84.8333 139.5,85.5C 139.389,86.1174 139.056,86.6174 138.5,87C 139.629,89.1678 141.129,89.6678 143,88.5C 143.706,90.9552 142.873,92.6219 140.5,93.5C 137.679,93.6841 136.012,92.3507 135.5,89.5C 132.93,88.7771 130.597,87.6104 128.5,86C 127.251,85.2599 126.251,85.4265 125.5,86.5C 122.927,87.5552 120.261,87.7218 117.5,87C 120.191,86.8442 122.524,86.0109 124.5,84.5C 127.361,83.6602 130.027,82.3268 132.5,80.5C 134.5,79.1667 136.5,79.1667 138.5,80.5 Z M 134.5,83.5 C 135.376,83.3691 136.043,83.7025 136.5,84.5C 135.24,85.3816 134.074,86.3816 133,87.5C 132.5,87 132,86.5 131.5,86C 132.571,85.1482 133.571,84.3149 134.5,83.5 Z"/></g>
<g><path style="opacity:1" fill="#69ca65" d="M 247.5,93.5 C 245.824,92.8166 245.157,91.4832 245.5,89.5C 244.209,89.2627 243.209,89.596 242.5,90.5C 238.124,93.5088 234.457,97.1754 231.5,101.5C 230.778,102.551 229.778,103.218 228.5,103.5C 228.357,101.738 228.691,100.071 229.5,98.5C 231.854,95.4789 234.521,92.8123 237.5,90.5C 241.108,89.2412 243.441,86.9078 244.5,83.5C 242.801,83.3796 241.135,83.0463 239.5,82.5C 236.633,83.7741 233.633,84.6075 230.5,85C 224.712,88.3018 219.378,92.1351 214.5,96.5C 213.065,95.9035 211.398,95.9035 209.5,96.5C 217.098,88.1959 226.431,82.6959 237.5,80C 239.5,79.3333 241.5,79.3333 243.5,80C 245.453,81.6326 247.62,82.7993 250,83.5C 253.471,82.5446 256.971,82.3779 260.5,83C 256.861,84.325 253.194,85.4917 249.5,86.5C 249.116,88.9294 248.449,91.2627 247.5,93.5 Z"/></g>
<g><path style="opacity:1" fill="#7abc79" d="M 108.5,87.5 C 110.306,88.0241 111.972,88.6908 113.5,89.5C 112.312,90.3636 111.145,91.3636 110,92.5C 109.409,93.4835 109.743,94.1501 111,94.5C 114.849,91.1604 119.349,89.4937 124.5,89.5C 124.629,91.2161 124.962,92.8828 125.5,94.5C 126.506,95.3957 126.506,96.0623 125.5,96.5C 124.17,95.1679 122.503,94.3345 120.5,94C 122.595,93.4444 122.762,92.9444 121,92.5C 116.738,94.5307 112.238,95.864 107.5,96.5C 107.5,95.1667 107.5,93.8333 107.5,92.5C 106.833,91.8333 106.167,91.1667 105.5,90.5C 105.5,88.5 106.5,87.5 108.5,87.5 Z"/></g>
<g><path style="opacity:0.42" fill="#73b971" d="M 237.5,90.5 C 236.833,90.5 236.5,90.1667 236.5,89.5C 238.428,87.5259 240.761,86.0259 243.5,85C 237.73,84.4425 232.397,85.7758 227.5,89C 218.975,94.3598 211.975,101.193 206.5,109.5C 205.833,109.833 205.167,110.167 204.5,110.5C 206.867,105.082 210.2,100.416 214.5,96.5C 219.378,92.1351 224.712,88.3018 230.5,85C 233.633,84.6075 236.633,83.7741 239.5,82.5C 241.135,83.0463 242.801,83.3796 244.5,83.5C 243.441,86.9078 241.108,89.2412 237.5,90.5 Z"/></g>
<g><path style="opacity:0.341" fill="#71b76f" d="M 242.5,90.5 C 243.586,90.62 244.253,91.2867 244.5,92.5C 244.457,93.4164 244.124,94.0831 243.5,94.5C 241.445,98.7233 238.278,101.723 234,103.5C 232.624,103.316 231.791,102.649 231.5,101.5C 234.457,97.1754 238.124,93.5088 242.5,90.5 Z M 243.5,94.5 C 240.101,96.3883 237.101,98.8883 234.5,102C 233.833,102.667 233.167,102.667 232.5,102C 235.675,98.4921 239.175,95.3255 243,92.5C 243.464,93.0944 243.631,93.7611 243.5,94.5 Z"/></g>
<g><path style="opacity:1" fill="#78b877" d="M 45.5,89.5 C 50.7562,89.9224 51.2562,90.9224 47,92.5C 46.5774,91.0439 45.7441,90.5439 44.5,91C 43.3659,92.016 43.6992,92.6827 45.5,93C 44.5842,93.2784 43.9175,93.7784 43.5,94.5C 41.4832,95.5294 39.4832,96.5294 37.5,97.5C 38.3029,96.5768 38.4696,95.5768 38,94.5C 36.0065,95.914 33.8398,96.914 31.5,97.5C 35.4742,93.8395 40.1409,91.1729 45.5,89.5 Z"/></g>
<g><path style="opacity:1" fill="#72c670" d="M 140.5,93.5 C 142.5,93.5 144.5,93.5 146.5,93.5C 146.629,100.675 145.962,101.009 144.5,94.5C 142.801,94.3398 141.134,94.5065 139.5,95C 140.308,95.3076 140.975,95.8076 141.5,96.5C 140.818,99.3655 139.484,101.866 137.5,104C 133.621,105.698 129.621,106.865 125.5,107.5C 123.801,107.66 122.134,107.494 120.5,107C 121.056,106.617 121.389,106.117 121.5,105.5C 126.164,105.195 130.664,104.195 135,102.5C 138.02,100.872 138.854,98.5384 137.5,95.5C 133.432,92.4793 129.432,89.4793 125.5,86.5C 126.251,85.4265 127.251,85.2599 128.5,86C 130.597,87.6104 132.93,88.7771 135.5,89.5C 136.012,92.3507 137.679,93.6841 140.5,93.5 Z"/></g>
<g><path style="opacity:1" fill="#67ca62" d="M 214.5,96.5 C 210.2,100.416 206.867,105.082 204.5,110.5C 200.789,115.155 199.622,120.489 201,126.5C 202.039,127.71 203.206,128.71 204.5,129.5C 206.292,130.309 208.292,130.809 210.5,131C 211.598,131.77 211.598,132.603 210.5,133.5C 207.751,133.726 205.084,133.393 202.5,132.5C 201.403,130.465 199.737,129.132 197.5,128.5C 196.149,126.546 195.482,124.379 195.5,122C 196.686,111.452 201.352,102.952 209.5,96.5C 211.398,95.9035 213.065,95.9035 214.5,96.5 Z"/></g>
<g><path style="opacity:1" fill="#7ed27d" d="M 106.5,98.5 C 107.912,102.345 106.579,105.012 102.5,106.5C 99.2068,105.031 96.3734,105.698 94,108.5C 93.516,106.807 94.016,105.473 95.5,104.5C 99.2567,102.786 102.923,100.786 106.5,98.5 Z"/></g>
<g><path style="opacity:0.966" fill="#72b971" d="M 159.5,84.5 C 161.167,87.1667 162.833,89.8333 164.5,92.5C 161.695,91.2588 159.529,89.2588 158,86.5C 155.088,87.7396 152.421,89.4063 150,91.5C 149.145,96.5284 148.478,101.528 148,106.5C 146.314,110.552 144.148,114.219 141.5,117.5C 140.833,117.5 140.5,117.833 140.5,118.5C 139.833,118.5 139.5,118.833 139.5,119.5C 138.833,119.5 138.5,119.833 138.5,120.5C 137.391,120.557 136.391,120.89 135.5,121.5C 135.389,120.883 135.056,120.383 134.5,120C 138.991,116.133 141.657,111.633 142.5,106.5C 142.75,103.786 142.917,101.119 143,98.5C 141.558,102.275 139.058,105.108 135.5,107C 128.915,108.656 122.248,109.823 115.5,110.5C 118.688,109.018 122.021,108.018 125.5,107.5C 129.621,106.865 133.621,105.698 137.5,104C 139.484,101.866 140.818,99.3655 141.5,96.5C 140.975,95.8076 140.308,95.3076 139.5,95C 141.134,94.5065 142.801,94.3398 144.5,94.5C 145.962,101.009 146.629,100.675 146.5,93.5C 149.525,88.4548 153.858,85.4548 159.5,84.5 Z"/></g>
<g><path style="opacity:1" fill="#67cb62" d="M 282.5,125.5 C 282.821,127.048 283.821,127.715 285.5,127.5C 285.833,128.167 286.167,128.833 286.5,129.5C 284.143,129.663 281.81,129.497 279.5,129C 278.1,127.562 276.433,126.729 274.5,126.5C 274.5,125.833 274.5,125.167 274.5,124.5C 279.355,121.314 282.689,116.981 284.5,111.5C 287.235,110.213 288.902,108.047 289.5,105C 292.994,102.014 296.66,99.181 300.5,96.5C 303.086,95.52 305.753,95.1866 308.5,95.5C 308.628,97.6547 308.128,99.6547 307,101.5C 303.902,103.592 301.069,106.092 298.5,109C 292.717,111.862 287.717,115.695 283.5,120.5C 282.548,122.045 282.215,123.712 282.5,125.5 Z"/></g>
<g><path style="opacity:1" fill="#69cb63" d="M 437.5,102.5 C 435.59,103.684 435.257,105.184 436.5,107C 435.295,108.376 433.962,109.542 432.5,110.5C 432.511,108.983 433.177,107.816 434.5,107C 430.5,106.333 426.5,106.333 422.5,107C 419.335,109.335 416.335,111.835 413.5,114.5C 412.596,113.791 412.263,112.791 412.5,111.5C 413.974,110.564 414.974,109.23 415.5,107.5C 416.434,106.432 416.768,105.099 416.5,103.5C 418.415,103.784 420.081,103.451 421.5,102.5C 423.053,100.615 425.053,99.615 427.5,99.5C 427.5,101.167 427.5,102.833 427.5,104.5C 430.973,104.424 434.306,103.758 437.5,102.5 Z"/></g>
<g><path style="opacity:0.663" fill="#72b970" d="M 311.5,122.5 C 311.5,122.833 311.5,123.167 311.5,123.5C 308.678,126.778 305.012,128.111 300.5,127.5C 300.575,124.794 300.908,122.127 301.5,119.5C 307.167,115.5 312.833,111.5 318.5,107.5C 320.01,106.164 321.677,104.997 323.5,104C 324.823,103.184 325.489,102.017 325.5,100.5C 328.769,96.2008 327.769,94.3675 322.5,95C 313.323,100.011 306.323,107.177 301.5,116.5C 298.998,118.17 296.998,120.336 295.5,123C 292.339,124.993 289.006,126.493 285.5,127.5C 283.821,127.715 282.821,127.048 282.5,125.5C 282.833,125.5 283.167,125.5 283.5,125.5C 291.075,124.123 296.908,120.123 301,113.5C 302.705,111.423 303.872,109.09 304.5,106.5C 305.167,106.5 305.5,106.167 305.5,105.5C 306.167,105.5 306.5,105.167 306.5,104.5C 307.167,104.5 307.5,104.167 307.5,103.5C 308.167,103.5 308.5,103.167 308.5,102.5C 309.167,102.5 309.5,102.167 309.5,101.5C 312.003,99.1673 314.669,97.0007 317.5,95C 321.15,93.4978 324.816,93.3312 328.5,94.5C 329.599,97.359 329.099,100.026 327,102.5C 321.677,108.157 315.51,112.657 308.5,116C 304.376,118.42 302.543,121.92 303,126.5C 305.727,124.939 308.561,123.605 311.5,122.5 Z"/></g>
<g><path style="opacity:1" fill="#68cb63" d="M 325.5,100.5 C 323.602,101.089 321.602,101.256 319.5,101C 317.925,103.144 317.592,105.311 318.5,107.5C 312.833,111.5 307.167,115.5 301.5,119.5C 301.5,118.5 301.5,117.5 301.5,116.5C 306.323,107.177 313.323,100.011 322.5,95C 327.769,94.3675 328.769,96.2008 325.5,100.5 Z"/></g>
<g><path style="opacity:1" fill="#7dd07b" d="M 107.5,92.5 C 107.5,93.8333 107.5,95.1667 107.5,96.5C 112.238,95.864 116.738,94.5307 121,92.5C 122.762,92.9444 122.595,93.4444 120.5,94C 122.503,94.3345 124.17,95.1679 125.5,96.5C 124.972,97.7206 124.305,98.8873 123.5,100C 118.365,100.628 116.032,103.461 116.5,108.5C 113.68,108.087 111.68,109.087 110.5,111.5C 109.107,110.74 107.607,110.074 106,109.5C 105.167,109.667 104.333,109.833 103.5,110C 104.598,110.77 104.598,111.603 103.5,112.5C 103.565,112.938 103.399,113.272 103,113.5C 101.796,112.141 100.296,111.141 98.5,110.5C 102.674,107.912 107.007,105.579 111.5,103.5C 112.623,105.289 113.956,105.622 115.5,104.5C 114.173,102.689 113.173,100.689 112.5,98.5C 111.833,98.8333 111.167,99.1667 110.5,99.5C 109.304,99.1543 109.304,98.6543 110.5,98C 109.207,97.51 107.873,97.3433 106.5,97.5C 106.322,96.3052 105.989,95.1385 105.5,94C 105.836,92.9701 106.503,92.4701 107.5,92.5 Z"/></g>
<g><path style="opacity:1" fill="#7dbc7c" d="M 125.5,94.5 C 129.881,94.7454 130.714,96.7454 128,100.5C 126.67,101.582 125.17,102.249 123.5,102.5C 121.071,102.585 119.071,103.585 117.5,105.5C 118.7,106.292 120.033,106.292 121.5,105.5C 121.389,106.117 121.056,106.617 120.5,107C 122.134,107.494 123.801,107.66 125.5,107.5C 122.021,108.018 118.688,109.018 115.5,110.5C 113.337,112.083 111.004,113.416 108.5,114.5C 108.062,114.565 107.728,114.399 107.5,114C 108.571,113.148 109.571,112.315 110.5,111.5C 111.68,109.087 113.68,108.087 116.5,108.5C 116.032,103.461 118.365,100.628 123.5,100C 124.305,98.8873 124.972,97.7206 125.5,96.5C 126.506,96.0623 126.506,95.3957 125.5,94.5 Z"/></g>
<g><path style="opacity:1" fill="#6ec86b" d="M 242.5,90.5 C 243.209,89.596 244.209,89.2627 245.5,89.5C 245.157,91.4832 245.824,92.8166 247.5,93.5C 246.89,94.391 246.557,95.391 246.5,96.5C 243.998,98.1696 241.998,100.336 240.5,103C 237.827,104.001 235.493,105.501 233.5,107.5C 231.214,106.867 229.548,105.534 228.5,103.5C 229.778,103.218 230.778,102.551 231.5,101.5C 231.791,102.649 232.624,103.316 234,103.5C 238.278,101.723 241.445,98.7233 243.5,94.5C 244.124,94.0831 244.457,93.4164 244.5,92.5C 244.253,91.2867 243.586,90.62 242.5,90.5 Z"/></g>
<g><path style="opacity:1" fill="#6acb65" d="M 258.5,113.5 C 258.657,114.873 258.49,116.207 258,117.5C 255.971,120.029 254.138,122.696 252.5,125.5C 252.957,126.298 253.624,126.631 254.5,126.5C 255.506,126.938 255.506,127.604 254.5,128.5C 254.167,128.5 253.833,128.5 253.5,128.5C 251.335,128.884 249.668,128.217 248.5,126.5C 250.734,122.614 252.234,118.614 253,114.5C 250.919,113.667 248.752,113.667 246.5,114.5C 247.658,113.427 247.658,112.261 246.5,111C 248.896,107.233 248.229,106.733 244.5,109.5C 247.213,103.948 251.213,99.4485 256.5,96C 259.683,94.9686 262.349,95.6353 264.5,98C 264.333,98.5 264.167,99 264,99.5C 259.183,103.145 254.349,106.645 249.5,110C 252.466,110.452 255.466,111.619 258.5,113.5 Z"/></g>
<g><path style="opacity:1" fill="#6dc969" d="M 421.5,102.5 C 420.081,103.451 418.415,103.784 416.5,103.5C 416.768,105.099 416.434,106.432 415.5,107.5C 414.306,106.223 412.64,105.556 410.5,105.5C 408.833,105.667 407.167,105.833 405.5,106C 404.286,108.674 402.953,111.174 401.5,113.5C 400.167,114.5 398.833,115.5 397.5,116.5C 397.167,115.833 396.833,115.167 396.5,114.5C 396.733,112.938 397.4,111.605 398.5,110.5C 399.907,108.468 401.24,106.301 402.5,104C 408.742,102.63 415.075,102.13 421.5,102.5 Z"/></g>
<g><path style="opacity:0.42" fill="#71b86f" d="M 445.5,123.5 C 444.833,123.5 444.167,123.5 443.5,123.5C 444.373,121.114 445.873,119.114 448,117.5C 448.667,116.167 448.667,114.833 448,113.5C 445.772,111.887 443.272,111.22 440.5,111.5C 439.527,109.708 440.194,108.375 442.5,107.5C 446.372,105.807 449.872,103.474 453,100.5C 453.667,99.1667 453.667,97.8333 453,96.5C 450.936,95.4086 448.769,95.2419 446.5,96C 444.271,98.4003 441.937,100.567 439.5,102.5C 438.833,102.5 438.167,102.5 437.5,102.5C 434.306,103.758 430.973,104.424 427.5,104.5C 427.5,102.833 427.5,101.167 427.5,99.5C 425.053,99.615 423.053,100.615 421.5,102.5C 415.075,102.13 408.742,102.63 402.5,104C 401.24,106.301 399.907,108.468 398.5,110.5C 397.876,106.987 398.876,104.153 401.5,102C 406.805,100.391 412.138,100.224 417.5,101.5C 419.951,99.71 422.618,98.3766 425.5,97.5C 428.911,97.403 430.245,99.0696 429.5,102.5C 432.568,101.978 435.568,101.145 438.5,100C 443.146,94.9235 448.812,93.0902 455.5,94.5C 455.663,96.8568 455.497,99.1902 455,101.5C 451.77,104.531 448.27,107.197 444.5,109.5C 446.113,110.427 447.779,111.261 449.5,112C 450.081,112.893 450.415,113.893 450.5,115C 449.863,118.463 448.197,121.296 445.5,123.5 Z"/></g>
<g><path style="opacity:1" fill="#6bcb66" d="M 442.5,107.5 C 443.408,105.548 443.241,103.548 442,101.5C 441.162,102.999 440.329,103.332 439.5,102.5C 441.937,100.567 444.271,98.4003 446.5,96C 448.769,95.2419 450.936,95.4086 453,96.5C 453.667,97.8333 453.667,99.1667 453,100.5C 449.872,103.474 446.372,105.807 442.5,107.5 Z"/></g>
<g><path style="opacity:1" fill="#7ad078" d="M 83.5,104.5 C 82.791,105.404 81.791,105.737 80.5,105.5C 80.5,106.5 80.5,107.5 80.5,108.5C 77.2442,106.785 76.5776,104.785 78.5,102.5C 80.4216,102.801 82.0883,103.467 83.5,104.5 Z"/></g>
<g><path style="opacity:0.49" fill="#74ba73" d="M 124.5,84.5 C 122.524,86.0109 120.191,86.8442 117.5,87C 120.261,87.7218 122.927,87.5552 125.5,86.5C 129.432,89.4793 133.432,92.4793 137.5,95.5C 138.854,98.5384 138.02,100.872 135,102.5C 130.664,104.195 126.164,105.195 121.5,105.5C 120.033,106.292 118.7,106.292 117.5,105.5C 119.071,103.585 121.071,102.585 123.5,102.5C 129.126,103.736 133.793,101.903 137.5,97C 133.139,94.4883 128.806,91.9883 124.5,89.5C 120.983,88.3797 117.316,88.3797 113.5,89.5C 111.972,88.6908 110.306,88.0241 108.5,87.5C 113.419,84.419 118.752,83.419 124.5,84.5 Z"/></g>
<g><path style="opacity:1" fill="#6fc46c" d="M 325.5,100.5 C 325.489,102.017 324.823,103.184 323.5,104C 321.677,104.997 320.01,106.164 318.5,107.5C 317.592,105.311 317.925,103.144 319.5,101C 321.602,101.256 323.602,101.089 325.5,100.5 Z"/></g>
<g><path style="opacity:1" fill="#6fc66d" d="M 106.5,97.5 C 107.873,97.3433 109.207,97.51 110.5,98C 109.304,98.6543 109.304,99.1543 110.5,99.5C 111.167,99.1667 111.833,98.8333 112.5,98.5C 113.173,100.689 114.173,102.689 115.5,104.5C 113.956,105.622 112.623,105.289 111.5,103.5C 107.007,105.579 102.674,107.912 98.5,110.5C 100.296,111.141 101.796,112.141 103,113.5C 103.399,113.272 103.565,112.938 103.5,112.5C 106.673,111.361 107.34,112.527 105.5,116C 107.188,118.349 108.854,120.682 110.5,123C 109.788,124.442 108.621,125.275 107,125.5C 101.713,121.013 96.8795,116.679 92.5,112.5C 91.2638,111.754 89.9305,111.421 88.5,111.5C 88.297,109.362 87.297,107.695 85.5,106.5C 88.7063,105.192 92.0396,104.525 95.5,104.5C 94.016,105.473 93.516,106.807 94,108.5C 96.3734,105.698 99.2068,105.031 102.5,106.5C 106.579,105.012 107.912,102.345 106.5,98.5C 106.5,98.1667 106.5,97.8333 106.5,97.5 Z"/></g>
<g><path style="opacity:0.663" fill="#73b972" d="M 259.5,112.5 C 259.5,113.167 259.167,113.5 258.5,113.5C 255.466,111.619 252.466,110.452 249.5,110C 254.349,106.645 259.183,103.145 264,99.5C 264.167,99 264.333,98.5 264.5,98C 262.349,95.6353 259.683,94.9686 256.5,96C 251.213,99.4485 247.213,103.948 244.5,109.5C 241.719,112.736 238.719,115.736 235.5,118.5C 235.5,117.5 235.5,116.5 235.5,115.5C 241.645,109.514 247.312,103.014 252.5,96C 256.747,94.0108 261.08,93.5108 265.5,94.5C 266.382,98.9093 265.048,102.409 261.5,105C 258.814,106.368 256.147,107.701 253.5,109C 255.618,110.082 257.618,111.249 259.5,112.5 Z"/></g>
<g><path style="opacity:1" fill="#6fc46c" d="M 169.5,124.5 C 168.833,124.5 168.167,124.5 167.5,124.5C 167.717,121.565 168.383,118.731 169.5,116C 169.472,114.93 169.139,114.097 168.5,113.5C 167.766,112.292 167.433,110.959 167.5,109.5C 170.077,108.028 171.41,105.695 171.5,102.5C 170.196,98.3465 168.196,94.5132 165.5,91C 166.167,90.3333 166.833,90.3333 167.5,91C 170.463,93.8747 172.296,97.3747 173,101.5C 173.45,109.416 172.283,117.082 169.5,124.5 Z"/></g>
<g><path style="opacity:0.286" fill="#72b970" d="M 236.5,89.5 C 236.5,90.1667 236.833,90.5 237.5,90.5C 234.521,92.8123 231.854,95.4789 229.5,98.5C 228.691,100.071 228.357,101.738 228.5,103.5C 229.548,105.534 231.214,106.867 233.5,107.5C 235.493,105.501 237.827,104.001 240.5,103C 241.998,100.336 243.998,98.1696 246.5,96.5C 243.944,104.787 238.277,108.62 229.5,108C 226.651,105.441 225.817,102.274 227,98.5C 229.379,94.6198 232.546,91.6198 236.5,89.5 Z"/></g>
<g><path style="opacity:0.286" fill="#71b96f" d="M 432.5,110.5 C 428.084,117.581 422.084,122.914 414.5,126.5C 415.243,127.182 415.909,127.849 416.5,128.5C 414.833,128.5 413.167,128.5 411.5,128.5C 410.469,127.751 409.302,127.085 408,126.5C 407.833,125.667 407.667,124.833 407.5,124C 409.112,120.615 411.112,117.448 413.5,114.5C 416.335,111.835 419.335,109.335 422.5,107C 426.5,106.333 430.5,106.333 434.5,107C 433.177,107.816 432.511,108.983 432.5,110.5 Z M 422.5,108.5 C 425.572,108.183 428.572,108.516 431.5,109.5C 427.342,114.491 422.675,118.991 417.5,123C 414.649,124.608 411.649,125.274 408.5,125C 412.627,119.04 417.293,113.54 422.5,108.5 Z"/></g>
<g><path style="opacity:1" fill="#6cc967" d="M 278.5,110.5 C 273.494,114.796 269.16,119.796 265.5,125.5C 265.833,126.5 266.5,127.167 267.5,127.5C 269.945,126.688 272.278,125.688 274.5,124.5C 274.5,125.167 274.5,125.833 274.5,126.5C 274.389,127.117 274.056,127.617 273.5,128C 268.826,130.064 264.326,129.897 260,127.5C 258.234,128.233 256.401,128.567 254.5,128.5C 255.506,127.604 255.506,126.938 254.5,126.5C 256.493,124.837 258.826,123.67 261.5,123C 265.877,118.446 270.377,113.946 275,109.5C 275.483,108.552 275.649,107.552 275.5,106.5C 276.5,106.5 277.5,106.5 278.5,106.5C 278.5,107.833 278.5,109.167 278.5,110.5 Z"/></g>
<g><path style="opacity:1" fill="#68ca63" d="M 531.5,122.5 C 530.549,123.919 530.216,125.585 530.5,127.5C 529.5,127.5 528.5,127.5 527.5,127.5C 526.5,126.833 525.5,126.167 524.5,125.5C 524.167,124.833 523.833,124.167 523.5,123.5C 527.747,117.093 533.581,112.76 541,110.5C 543.461,111.218 545.961,111.885 548.5,112.5C 549.833,114.167 549.833,115.833 548.5,117.5C 543.187,120.298 537.52,121.964 531.5,122.5 Z"/></g>
<g><path style="opacity:0.49" fill="#74bb72" d="M 37.5,97.5 C 35.6117,100.899 33.1117,103.899 30,106.5C 29.006,111.118 28.506,115.785 28.5,120.5C 29.675,120.281 30.675,120.614 31.5,121.5C 34.2866,126.446 37.62,130.946 41.5,135C 47.0836,138.945 52.417,143.112 57.5,147.5C 55.8058,148.686 54.1392,148.519 52.5,147C 47.0544,143.96 42.0544,140.46 37.5,136.5C 32.3321,132.845 29.1655,127.845 28,121.5C 26.5722,126.534 26.4056,131.534 27.5,136.5C 26.0689,136.119 25.2355,135.119 25,133.5C 24.6667,133.833 24.3333,134.167 24,134.5C 23.5065,132.866 23.3398,131.199 23.5,129.5C 22.5386,131.265 22.2053,133.265 22.5,135.5C 21.2589,124.404 22.4256,113.404 26,102.5C 27.7038,100.627 29.5372,98.9599 31.5,97.5C 33.8398,96.914 36.0065,95.914 38,94.5C 38.4696,95.5768 38.3029,96.5768 37.5,97.5 Z"/></g>
<g><path style="opacity:0.49" fill="#71b96f" d="M 309.5,101.5 C 308.833,101.5 308.5,101.833 308.5,102.5C 307.833,102.5 307.5,102.833 307.5,103.5C 306.833,103.5 306.5,103.833 306.5,104.5C 305.833,104.5 305.5,104.833 305.5,105.5C 304.833,105.5 304.5,105.833 304.5,106.5C 299.038,110.736 293.371,114.736 287.5,118.5C 285.384,120.4 284.051,122.733 283.5,125.5C 283.167,125.5 282.833,125.5 282.5,125.5C 282.215,123.712 282.548,122.045 283.5,120.5C 287.717,115.695 292.717,111.862 298.5,109C 301.069,106.092 303.902,103.592 307,101.5C 308.128,99.6547 308.628,97.6547 308.5,95.5C 305.753,95.1866 303.086,95.52 300.5,96.5C 296.66,99.181 292.994,102.014 289.5,105C 288.902,108.047 287.235,110.213 284.5,111.5C 287.453,104.7 292.12,99.2001 298.5,95C 302.122,93.8944 305.789,93.5611 309.5,94C 310.649,96.4592 310.649,98.9592 309.5,101.5 Z"/></g>
<g><path style="opacity:0.49" fill="#71b76f" d="M 300.5,100.5 C 301.867,102.093 301.534,103.426 299.5,104.5C 299.167,104.167 298.833,103.833 298.5,103.5C 299.193,102.482 299.859,101.482 300.5,100.5 Z"/></g>
<g><path style="opacity:1" fill="#67ca62" d="M 497.5,111.5 C 500.305,112.319 503.305,112.819 506.5,113C 508.544,113.498 509.878,114.665 510.5,116.5C 506.259,118.904 502.759,122.238 500,126.5C 498.534,128.325 496.701,128.825 494.5,128C 497.257,123.821 500.257,119.821 503.5,116C 501.386,114.482 499.053,114.149 496.5,115C 491.833,118.333 487.833,122.333 484.5,127C 483.1,128.438 481.433,129.271 479.5,129.5C 480.274,126.619 481.607,123.952 483.5,121.5C 486.651,118.85 489.651,116.016 492.5,113C 494.025,111.991 495.692,111.491 497.5,111.5 Z"/></g>
<g><path style="opacity:1" fill="#7abe79" d="M 84.5,102.5 C 84.6716,103.492 84.3382,104.158 83.5,104.5C 82.0883,103.467 80.4216,102.801 78.5,102.5C 76.5776,104.785 77.2442,106.785 80.5,108.5C 81.1667,108.167 81.8333,107.833 82.5,107.5C 83.9027,112.566 87.2361,115.566 92.5,116.5C 93.5274,118.194 94.8608,119.527 96.5,120.5C 96.0825,121.222 95.4158,121.722 94.5,122C 99.7937,122.818 99.7937,123.318 94.5,123.5C 84.6302,119.924 77.9636,113.257 74.5,103.5C 74.8178,102.353 75.4844,101.519 76.5,101C 79.538,100.115 82.2046,100.615 84.5,102.5 Z"/></g>
<g><path style="opacity:1" fill="#66ca61" d="M 442.5,107.5 C 440.194,108.375 439.527,109.708 440.5,111.5C 440.5,112.167 440.5,112.833 440.5,113.5C 438.545,113.799 437.211,114.799 436.5,116.5C 434.217,116.608 432.217,117.441 430.5,119C 427.13,122.035 424.13,125.368 421.5,129C 419.735,129.64 418.068,129.473 416.5,128.5C 415.909,127.849 415.243,127.182 414.5,126.5C 422.084,122.914 428.084,117.581 432.5,110.5C 433.962,109.542 435.295,108.376 436.5,107C 435.257,105.184 435.59,103.684 437.5,102.5C 438.167,102.5 438.833,102.5 439.5,102.5C 440.329,103.332 441.162,102.999 442,101.5C 443.241,103.548 443.408,105.548 442.5,107.5 Z"/></g>
<g><path style="opacity:0.82" fill="#74ba72" d="M 522.5,117.5 C 521.833,117.5 521.5,117.167 521.5,116.5C 522.127,113.136 520.794,111.136 517.5,110.5C 513.142,113.063 508.808,113.063 504.5,110.5C 502.253,111.374 499.92,111.708 497.5,111.5C 495.692,111.491 494.025,111.991 492.5,113C 489.651,116.016 486.651,118.85 483.5,121.5C 481.607,123.952 480.274,126.619 479.5,129.5C 478.094,129.027 477.427,128.027 477.5,126.5C 482.247,119.417 488.247,113.751 495.5,109.5C 498.5,110.833 501.5,110.833 504.5,109.5C 506.383,110.024 508.216,110.691 510,111.5C 514.414,109.03 518.747,109.03 523,111.5C 523.789,113.712 523.622,115.712 522.5,117.5 Z"/></g>
<g><path style="opacity:0.91" fill="#72b970" d="M 532.5,125.5 C 531.596,124.791 531.263,123.791 531.5,122.5C 537.52,121.964 543.187,120.298 548.5,117.5C 549.833,115.833 549.833,114.167 548.5,112.5C 545.961,111.885 543.461,111.218 541,110.5C 533.581,112.76 527.747,117.093 523.5,123.5C 520.3,125.07 516.967,125.904 513.5,126C 516.082,122.679 518.749,119.513 521.5,116.5C 521.5,117.167 521.833,117.5 522.5,117.5C 521.542,118.962 520.376,120.295 519,121.5C 518.333,122.167 518.333,122.833 519,123.5C 522.799,120.703 526.299,117.536 529.5,114C 535.988,109.669 542.988,108.502 550.5,110.5C 552.228,114.153 551.562,117.32 548.5,120C 542.834,121.563 537.501,123.396 532.5,125.5 Z"/></g>
<g><path style="opacity:0.725" fill="#71b86f" d="M 510.5,116.5 C 511.391,115.89 512.391,115.557 513.5,115.5C 513.5,115.833 513.5,116.167 513.5,116.5C 507.687,120.814 502.353,125.647 497.5,131C 494.775,131.803 493.109,130.803 492.5,128C 494.765,123.481 497.765,119.481 501.5,116C 498.788,115.262 496.455,115.929 494.5,118C 490.833,122.333 487.167,126.667 483.5,131C 478.697,132.329 476.697,130.829 477.5,126.5C 477.427,128.027 478.094,129.027 479.5,129.5C 481.433,129.271 483.1,128.438 484.5,127C 487.833,122.333 491.833,118.333 496.5,115C 499.053,114.149 501.386,114.482 503.5,116C 500.257,119.821 497.257,123.821 494.5,128C 496.701,128.825 498.534,128.325 500,126.5C 502.759,122.238 506.259,118.904 510.5,116.5 Z"/></g>
<g><path style="opacity:1" fill="#6cc169" d="M 23.5,129.5 C 23.7537,120.874 25.2537,112.54 28,104.5C 27.6886,107.442 27.1886,110.442 26.5,113.5C 26.5698,114.772 26.9032,115.938 27.5,117C 26.4276,121.358 25.0942,125.525 23.5,129.5 Z"/></g>
<g><path style="opacity:0.549" fill="#6fb76d" d="M 392.5,106.5 C 393.139,107.097 393.472,107.93 393.5,109C 392.524,111.24 391.691,113.407 391,115.5C 393.4,113.585 395.9,111.919 398.5,110.5C 397.4,111.605 396.733,112.938 396.5,114.5C 395.078,114.709 393.745,115.209 392.5,116C 390.812,118.268 388.979,120.435 387,122.5C 385.511,126.833 387.011,129.167 391.5,129.5C 395.149,128.67 398.815,128.004 402.5,127.5C 403.946,128.94 405.779,129.607 408,129.5C 409.385,129.486 410.551,129.152 411.5,128.5C 413.167,128.5 414.833,128.5 416.5,128.5C 418.068,129.473 419.735,129.64 421.5,129C 424.13,125.368 427.13,122.035 430.5,119C 432.217,117.441 434.217,116.608 436.5,116.5C 431.364,120.804 426.698,125.637 422.5,131C 419.975,131.896 417.808,131.396 416,129.5C 410.621,132.109 405.287,132.109 400,129.5C 394.925,132.018 389.925,132.018 385,129.5C 384.667,127.167 384.333,124.833 384,122.5C 378.699,129.044 371.866,131.878 363.5,131C 362.069,130.535 360.903,129.701 360,128.5C 354.469,131.932 348.802,132.265 343,129.5C 342.22,127.613 342.387,125.946 343.5,124.5C 343.343,125.873 343.51,127.207 344,128.5C 344.232,127.263 344.732,126.263 345.5,125.5C 346.242,128.138 348.075,129.471 351,129.5C 353.59,128.539 356.257,127.872 359,127.5C 361.59,127.945 364.09,128.611 366.5,129.5C 379.322,127.341 387.322,120.008 390.5,107.5C 391.268,108.263 391.768,109.263 392,110.5C 392.49,109.207 392.657,107.873 392.5,106.5 Z"/></g>
<g><path style="opacity:0.286" fill="#6fb76d" d="M 513.5,115.5 C 514.209,114.596 515.209,114.263 516.5,114.5C 515.897,118.099 513.897,120.432 510.5,121.5C 511.925,120.078 512.925,118.411 513.5,116.5C 514.833,116.167 514.833,115.833 513.5,115.5 Z"/></g>
<g><path style="opacity:0.231" fill="#6eb96c" d="M 536.5,114.5 C 547.558,114.344 548.058,116.011 538,119.5C 537.167,119.167 536.333,118.833 535.5,118.5C 536.246,117.264 536.579,115.93 536.5,114.5 Z"/></g>
<g><path style="opacity:1" fill="#77ba76" d="M 167.5,108.5 C 167.5,108.833 167.5,109.167 167.5,109.5C 167.433,110.959 167.766,112.292 168.5,113.5C 160.64,115.545 152.973,118.045 145.5,121C 143.333,123.167 141.167,125.333 139,127.5C 138.399,131.952 136.899,135.952 134.5,139.5C 134.217,138.711 133.717,138.044 133,137.5C 131.088,139.657 129.421,141.991 128,144.5C 127.536,143.906 127.369,143.239 127.5,142.5C 131.553,135.33 135.219,127.997 138.5,120.5C 139.167,120.5 139.5,120.167 139.5,119.5C 140.167,119.5 140.5,119.167 140.5,118.5C 141.167,118.5 141.5,118.167 141.5,117.5C 142.683,116.496 144.016,115.662 145.5,115C 153.371,114.369 160.705,112.202 167.5,108.5 Z"/></g>
<g><path style="opacity:1" fill="#6ac866" d="M 301.5,116.5 C 301.5,117.5 301.5,118.5 301.5,119.5C 300.908,122.127 300.575,124.794 300.5,127.5C 305.012,128.111 308.678,126.778 311.5,123.5C 313.679,123.16 315.512,122.16 317,120.5C 316.454,123.093 314.954,125.26 312.5,127C 308.72,128.727 304.72,129.894 300.5,130.5C 298.253,129.594 296.253,128.261 294.5,126.5C 292.021,128.076 289.354,129.076 286.5,129.5C 286.167,128.833 285.833,128.167 285.5,127.5C 289.006,126.493 292.339,124.993 295.5,123C 296.998,120.336 298.998,118.17 301.5,116.5 Z"/></g>
<g><path style="opacity:1" fill="#68ca63" d="M 372.5,116.5 C 370.901,118.604 369.068,120.604 367,122.5C 366.51,123.793 366.343,125.127 366.5,126.5C 367.833,127.5 367.833,128.5 366.5,129.5C 364.09,128.611 361.59,127.945 359,127.5C 356.257,127.872 353.59,128.539 351,129.5C 348.075,129.471 346.242,128.138 345.5,125.5C 347.719,119.113 351.886,114.447 358,111.5C 357.002,115.788 354.669,119.455 351,122.5C 350.51,123.793 350.343,125.127 350.5,126.5C 358.583,125.957 364.583,122.124 368.5,115C 370.463,114.156 371.796,114.656 372.5,116.5 Z"/></g>
<g><path style="opacity:1" fill="#69ca64" d="M 440.5,111.5 C 443.272,111.22 445.772,111.887 448,113.5C 448.667,114.833 448.667,116.167 448,117.5C 445.873,119.114 444.373,121.114 443.5,123.5C 442.15,124.824 442.317,125.824 444,126.5C 447.49,125.668 450.49,124.001 453,121.5C 453.5,121.833 454,122.167 454.5,122.5C 453.687,123.814 452.687,124.981 451.5,126C 448.204,126.92 445.037,128.087 442,129.5C 440.7,128.293 439.2,127.626 437.5,127.5C 438.808,123.344 440.808,119.511 443.5,116C 443.252,114.251 442.252,113.418 440.5,113.5C 440.5,112.833 440.5,112.167 440.5,111.5 Z"/></g>
<g><path style="opacity:0.918" fill="#71ba6f" d="M 280.5,106.5 C 281.788,108.035 281.788,109.701 280.5,111.5C 275.676,115.491 271.343,119.991 267.5,125C 270.966,123.934 274.299,122.267 277.5,120C 278.943,116.394 281.276,113.561 284.5,111.5C 282.689,116.981 279.355,121.314 274.5,124.5C 272.278,125.688 269.945,126.688 267.5,127.5C 266.5,127.167 265.833,126.5 265.5,125.5C 269.16,119.796 273.494,114.796 278.5,110.5C 280.176,109.817 280.843,108.483 280.5,106.5 Z"/></g>
<g><path style="opacity:0.42" fill="#72b870" d="M 373.5,117.5 C 372.833,117.5 372.5,117.167 372.5,116.5C 371.796,114.656 370.463,114.156 368.5,115C 364.583,122.124 358.583,125.957 350.5,126.5C 350.343,125.127 350.51,123.793 351,122.5C 354.669,119.455 357.002,115.788 358,111.5C 351.886,114.447 347.719,119.113 345.5,125.5C 344.732,126.263 344.232,127.263 344,128.5C 343.51,127.207 343.343,125.873 343.5,124.5C 346.529,116.489 352.196,111.489 360.5,109.5C 360.662,111.527 360.495,113.527 360,115.5C 357.049,118.572 354.216,121.739 351.5,125C 353.92,124.975 356.253,124.309 358.5,123C 361.867,119.297 365.534,115.964 369.5,113C 373.587,112.396 374.921,113.896 373.5,117.5 Z"/></g>
<g><path style="opacity:1" fill="#6bc867" d="M 390.5,107.5 C 387.322,120.008 379.322,127.341 366.5,129.5C 367.833,128.5 367.833,127.5 366.5,126.5C 377.668,125.491 384.501,119.491 387,108.5C 388.041,106.689 389.207,106.355 390.5,107.5 Z"/></g>
<g><path style="opacity:0.437" fill="#74ba72" d="M 105.5,90.5 C 106.167,91.1667 106.833,91.8333 107.5,92.5C 106.503,92.4701 105.836,92.9701 105.5,94C 105.989,95.1385 106.322,96.3052 106.5,97.5C 106.5,97.8333 106.5,98.1667 106.5,98.5C 102.923,100.786 99.2567,102.786 95.5,104.5C 92.0396,104.525 88.7063,105.192 85.5,106.5C 87.297,107.695 88.297,109.362 88.5,111.5C 89.9305,111.421 91.2638,111.754 92.5,112.5C 96.8795,116.679 101.713,121.013 107,125.5C 108.621,125.275 109.788,124.442 110.5,123C 108.854,120.682 107.188,118.349 105.5,116C 107.34,112.527 106.673,111.361 103.5,112.5C 104.598,111.603 104.598,110.77 103.5,110C 104.333,109.833 105.167,109.667 106,109.5C 107.607,110.074 109.107,110.74 110.5,111.5C 109.571,112.315 108.571,113.148 107.5,114C 107.728,114.399 108.062,114.565 108.5,114.5C 109.723,118.049 111.723,121.049 114.5,123.5C 112.5,123.5 111.5,124.5 111.5,126.5C 109.077,128.137 106.41,128.637 103.5,128C 100.119,127.085 97.1194,125.585 94.5,123.5C 99.7937,123.318 99.7937,122.818 94.5,122C 95.4158,121.722 96.0825,121.222 96.5,120.5C 97.2389,120.631 97.9056,120.464 98.5,120C 96.9366,118.053 94.9366,116.886 92.5,116.5C 92.5858,115.504 92.2524,114.671 91.5,114C 90.1667,113.667 88.8333,113.333 87.5,113C 86.6232,110.388 84.9566,108.555 82.5,107.5C 81.8333,107.833 81.1667,108.167 80.5,108.5C 80.5,107.5 80.5,106.5 80.5,105.5C 81.791,105.737 82.791,105.404 83.5,104.5C 84.3382,104.158 84.6716,103.492 84.5,102.5C 88.8899,103.329 93.2232,102.829 97.5,101C 99.6705,99.4138 102.004,98.0804 104.5,97C 103.158,94.5444 103.491,92.3778 105.5,90.5 Z"/></g>
<g><path style="opacity:0.505" fill="#73b971" d="M 101.5,114.5 C 102.5,114.5 103.5,114.5 104.5,114.5C 104.721,118.795 103.388,119.462 100.5,116.5C 100.863,115.817 101.196,115.15 101.5,114.5 Z"/></g>
<g><path style="opacity:1" fill="#77bb75" d="M 142.5,106.5 C 141.657,111.633 138.991,116.133 134.5,120C 135.056,120.383 135.389,120.883 135.5,121.5C 130.625,127.604 124.292,130.438 116.5,130C 114.654,128.97 112.987,127.804 111.5,126.5C 111.5,124.5 112.5,123.5 114.5,123.5C 116.305,124.237 117.971,125.237 119.5,126.5C 129.114,121.874 136.781,115.207 142.5,106.5 Z"/></g>
<g><path style="opacity:1" fill="#68c963" d="M 412.5,111.5 C 412.263,112.791 412.596,113.791 413.5,114.5C 411.112,117.448 409.112,120.615 407.5,124C 407.667,124.833 407.833,125.667 408,126.5C 409.302,127.085 410.469,127.751 411.5,128.5C 410.551,129.152 409.385,129.486 408,129.5C 405.779,129.607 403.946,128.94 402.5,127.5C 401.306,126.728 400.306,125.728 399.5,124.5C 401.647,122.53 403.98,120.697 406.5,119C 408.159,116.156 410.159,113.656 412.5,111.5 Z"/></g>
<g><path style="opacity:1" fill="#6ac966" d="M 521.5,116.5 C 518.749,119.513 516.082,122.679 513.5,126C 516.967,125.904 520.3,125.07 523.5,123.5C 523.833,124.167 524.167,124.833 524.5,125.5C 520.555,128.07 516.222,129.236 511.5,129C 509.36,126.827 509.026,124.327 510.5,121.5C 513.897,120.432 515.897,118.099 516.5,114.5C 515.209,114.263 514.209,114.596 513.5,115.5C 512.391,115.557 511.391,115.89 510.5,116.5C 509.878,114.665 508.544,113.498 506.5,113C 503.305,112.819 500.305,112.319 497.5,111.5C 499.92,111.708 502.253,111.374 504.5,110.5C 508.808,113.063 513.142,113.063 517.5,110.5C 520.794,111.136 522.127,113.136 521.5,116.5 Z"/></g>
<g><path style="opacity:0.82" fill="#71b56e" d="M 168.5,113.5 C 169.139,114.097 169.472,114.93 169.5,116C 168.383,118.731 167.717,121.565 167.5,124.5C 166.833,124.5 166.167,124.5 165.5,124.5C 166.697,120.905 167.697,117.239 168.5,113.5 Z"/></g>
<g><path style="opacity:0.49" fill="#72b870" d="M 280.5,106.5 C 280.843,108.483 280.176,109.817 278.5,110.5C 278.5,109.167 278.5,107.833 278.5,106.5C 277.5,106.5 276.5,106.5 275.5,106.5C 275.649,107.552 275.483,108.552 275,109.5C 270.377,113.946 265.877,118.446 261.5,123C 258.826,123.67 256.493,124.837 254.5,126.5C 253.624,126.631 252.957,126.298 252.5,125.5C 254.138,122.696 255.971,120.029 258,117.5C 258.49,116.207 258.657,114.873 258.5,113.5C 259.167,113.5 259.5,113.167 259.5,112.5C 260.613,113.946 260.78,115.613 260,117.5C 258.398,119.369 257.398,121.369 257,123.5C 263.579,118.254 269.412,112.421 274.5,106C 276.712,105.211 278.712,105.378 280.5,106.5 Z"/></g>
<g><path style="opacity:0.663" fill="#70b76e" d="M 415.5,107.5 C 414.974,109.23 413.974,110.564 412.5,111.5C 410.159,113.656 408.159,116.156 406.5,119C 403.98,120.697 401.647,122.53 399.5,124.5C 397.087,126.051 394.421,126.717 391.5,126.5C 391.343,125.127 391.51,123.793 392,122.5C 393.769,120.383 395.602,118.383 397.5,116.5C 398.833,115.5 400.167,114.5 401.5,113.5C 402.953,111.174 404.286,108.674 405.5,106C 407.167,105.833 408.833,105.667 410.5,105.5C 412.64,105.556 414.306,106.223 415.5,107.5 Z M 401.5,113.5 C 405.12,112.548 406.787,110.215 406.5,106.5C 409.187,106.336 411.854,106.503 414.5,107C 408.284,113.718 401.617,119.885 394.5,125.5C 393.479,124.998 393.312,124.332 394,123.5C 397.248,120.643 399.748,117.31 401.5,113.5 Z"/></g>
<g><path style="opacity:1" fill="#69c965" d="M 396.5,114.5 C 396.833,115.167 397.167,115.833 397.5,116.5C 395.602,118.383 393.769,120.383 392,122.5C 391.51,123.793 391.343,125.127 391.5,126.5C 394.421,126.717 397.087,126.051 399.5,124.5C 400.306,125.728 401.306,126.728 402.5,127.5C 398.815,128.004 395.149,128.67 391.5,129.5C 387.011,129.167 385.511,126.833 387,122.5C 388.979,120.435 390.812,118.268 392.5,116C 393.745,115.209 395.078,114.709 396.5,114.5 Z"/></g>
<g><path style="opacity:0.992" fill="#79af78" d="M 165.5,124.5 C 166.167,124.5 166.833,124.5 167.5,124.5C 168.167,124.5 168.833,124.5 169.5,124.5C 169.5,125.167 169.5,125.833 169.5,126.5C 168.185,127.476 166.852,128.476 165.5,129.5C 165.542,128.479 165.542,127.479 165.5,126.5C 165.5,125.833 165.5,125.167 165.5,124.5 Z"/></g>
<g><path style="opacity:1" fill="#67ca61" d="M 246.5,114.5 C 243.615,116.031 240.948,118.031 238.5,120.5C 236.628,123.582 234.295,126.249 231.5,128.5C 229.905,129.434 228.239,129.434 226.5,128.5C 226.5,127.833 226.5,127.167 226.5,126.5C 229.791,124.212 232.791,121.545 235.5,118.5C 238.719,115.736 241.719,112.736 244.5,109.5C 248.229,106.733 248.896,107.233 246.5,111C 247.658,112.261 247.658,113.427 246.5,114.5 Z"/></g>
<g><path style="opacity:0.82" fill="#71b86f" d="M 392.5,106.5 C 392.657,107.873 392.49,109.207 392,110.5C 391.768,109.263 391.268,108.263 390.5,107.5C 389.207,106.355 388.041,106.689 387,108.5C 384.501,119.491 377.668,125.491 366.5,126.5C 366.343,125.127 366.51,123.793 367,122.5C 369.068,120.604 370.901,118.604 372.5,116.5C 372.5,117.167 372.833,117.5 373.5,117.5C 372.118,120.394 370.118,122.894 367.5,125C 374.155,123.907 379.321,120.407 383,114.5C 383.942,111.557 385.108,108.724 386.5,106C 388.712,105.211 390.712,105.378 392.5,106.5 Z"/></g>
<g><path style="opacity:0.663" fill="#71b96f" d="M 206.5,109.5 C 204.024,113.464 202.357,117.798 201.5,122.5C 202.221,124.774 203.554,126.607 205.5,128C 217.995,129.564 227.995,125.397 235.5,115.5C 235.5,116.5 235.5,117.5 235.5,118.5C 232.791,121.545 229.791,124.212 226.5,126.5C 219.457,129.103 212.124,130.103 204.5,129.5C 203.206,128.71 202.039,127.71 201,126.5C 199.622,120.489 200.789,115.155 204.5,110.5C 205.167,110.167 205.833,109.833 206.5,109.5 Z"/></g>
<g><path style="opacity:0.604" fill="#70b66e" d="M 250.5,130.5 C 251.5,129.833 252.5,129.167 253.5,128.5C 253.833,128.5 254.167,128.5 254.5,128.5C 256.401,128.567 258.234,128.233 260,127.5C 264.326,129.897 268.826,130.064 273.5,128C 274.056,127.617 274.389,127.117 274.5,126.5C 276.433,126.729 278.1,127.562 279.5,129C 281.81,129.497 284.143,129.663 286.5,129.5C 289.354,129.076 292.021,128.076 294.5,126.5C 296.253,128.261 298.253,129.594 300.5,130.5C 304.72,129.894 308.72,128.727 312.5,127C 314.954,125.26 316.454,123.093 317,120.5C 315.512,122.16 313.679,123.16 311.5,123.5C 311.5,123.167 311.5,122.833 311.5,122.5C 313.64,119.387 316.64,118.054 320.5,118.5C 320.739,120.467 320.406,122.301 319.5,124C 313.15,129.514 305.817,132.181 297.5,132C 296.333,130.833 295.167,129.667 294,128.5C 289.299,132.128 284.133,133.128 278.5,131.5C 277.667,130.5 276.833,129.5 276,128.5C 270.516,131.977 264.849,132.311 259,129.5C 256.103,131.12 253.269,131.453 250.5,130.5 Z"/></g>
<g><path style="opacity:0.176" fill="#70b76e" d="M 440.5,113.5 C 442.252,113.418 443.252,114.251 443.5,116C 440.808,119.511 438.808,123.344 437.5,127.5C 439.2,127.626 440.7,128.293 442,129.5C 445.037,128.087 448.204,126.92 451.5,126C 452.687,124.981 453.687,123.814 454.5,122.5C 454,122.167 453.5,121.833 453,121.5C 450.49,124.001 447.49,125.668 444,126.5C 442.317,125.824 442.15,124.824 443.5,123.5C 444.167,123.5 444.833,123.5 445.5,123.5C 448.061,123.177 450.394,121.677 452.5,119C 455.237,117.92 456.904,118.754 457.5,121.5C 452.937,129.298 446.27,132.132 437.5,130C 436.398,127.599 436.231,125.099 437,122.5C 438.934,119.966 440.268,117.299 441,114.5C 439.53,115.267 438.03,115.933 436.5,116.5C 437.211,114.799 438.545,113.799 440.5,113.5 Z"/></g>
<g><path style="opacity:0.663" fill="#71b96f" d="M 253.5,128.5 C 252.5,129.167 251.5,129.833 250.5,130.5C 247.266,130.763 245.932,129.263 246.5,126C 247.394,121.745 248.894,117.912 251,114.5C 243.615,118.547 237.448,124.047 232.5,131C 229.403,130.926 226.403,131.093 223.5,131.5C 223.5,130.833 223.167,130.5 222.5,130.5C 223.671,129.655 225.005,128.989 226.5,128.5C 228.239,129.434 229.905,129.434 231.5,128.5C 234.295,126.249 236.628,123.582 238.5,120.5C 240.948,118.031 243.615,116.031 246.5,114.5C 248.752,113.667 250.919,113.667 253,114.5C 252.234,118.614 250.734,122.614 248.5,126.5C 249.668,128.217 251.335,128.884 253.5,128.5 Z"/></g>
<g><path style="opacity:0.098" fill="#70b86e" d="M 510.5,121.5 C 509.026,124.327 509.36,126.827 511.5,129C 516.222,129.236 520.555,128.07 524.5,125.5C 525.5,126.167 526.5,126.833 527.5,127.5C 536.072,130.614 544.405,129.78 552.5,125C 554.211,123.867 554.711,122.367 554,120.5C 547.606,126.937 540.439,128.604 532.5,125.5C 540.454,127.011 547.12,124.844 552.5,119C 554.473,118.505 556.473,118.338 558.5,118.5C 559.275,122.182 557.941,124.682 554.5,126C 547.162,130.834 539.162,132.501 530.5,131C 527.966,130.484 525.8,129.317 524,127.5C 519.952,130.518 515.452,131.684 510.5,131C 507.901,127.793 507.901,124.626 510.5,121.5 Z"/></g>
<g><path style="opacity:1" fill="#6dc86a" d="M 527.5,127.5 C 528.5,127.5 529.5,127.5 530.5,127.5C 530.216,125.585 530.549,123.919 531.5,122.5C 531.263,123.791 531.596,124.791 532.5,125.5C 540.439,128.604 547.606,126.937 554,120.5C 554.711,122.367 554.211,123.867 552.5,125C 544.405,129.78 536.072,130.614 527.5,127.5 Z"/></g>
<g><path style="opacity:1" fill="#74b973" d="M 165.5,126.5 C 165.542,127.479 165.542,128.479 165.5,129.5C 166.852,128.476 168.185,127.476 169.5,126.5C 169.084,128.752 167.751,130.252 165.5,131C 161.504,131.943 157.504,132.776 153.5,133.5C 153.631,132.624 153.298,131.957 152.5,131.5C 144.954,136.01 140.454,142.343 139,150.5C 137.698,149.915 136.531,149.249 135.5,148.5C 139.571,140.168 145.571,133.668 153.5,129C 157.496,128.057 161.496,127.224 165.5,126.5 Z"/></g>
<g><path style="opacity:1" fill="#6ec76b" d="M 226.5,126.5 C 226.5,127.167 226.5,127.833 226.5,128.5C 225.005,128.989 223.671,129.655 222.5,130.5C 218.664,131.884 214.664,132.884 210.5,133.5C 211.598,132.603 211.598,131.77 210.5,131C 208.292,130.809 206.292,130.309 204.5,129.5C 212.124,130.103 219.457,129.103 226.5,126.5 Z"/></g>
<g><path style="opacity:1" fill="#73b771" d="M 23.5,129.5 C 23.3398,131.199 23.5065,132.866 24,134.5C 24.3333,134.167 24.6667,133.833 25,133.5C 25.2355,135.119 26.0689,136.119 27.5,136.5C 30.5823,141.664 33.9156,146.664 37.5,151.5C 35.629,151.141 34.129,150.141 33,148.5C 31.5787,145.991 29.9121,143.657 28,141.5C 28.6458,145.132 30.1458,148.465 32.5,151.5C 31.5041,151.586 30.6708,151.252 30,150.5C 26.645,145.94 24.145,140.94 22.5,135.5C 22.2053,133.265 22.5386,131.265 23.5,129.5 Z"/></g>
<g><path style="opacity:0.663" fill="#74bc72" d="M 153.5,133.5 C 148.811,138.703 144.644,144.37 141,150.5C 139.887,151.305 138.721,151.972 137.5,152.5C 137.44,151.957 137.107,151.624 136.5,151.5C 135.52,152.981 134.353,154.315 133,155.5C 132.667,153.953 133.167,152.62 134.5,151.5C 134.376,150.893 134.043,150.56 133.5,150.5C 133.833,149.5 134.5,148.833 135.5,148.5C 136.531,149.249 137.698,149.915 139,150.5C 140.454,142.343 144.954,136.01 152.5,131.5C 153.298,131.957 153.631,132.624 153.5,133.5 Z"/></g>
<g><path style="opacity:1" fill="#73c671" d="M 37.5,151.5 C 41.6434,155.733 45.9767,159.733 50.5,163.5C 47.7305,162.563 45.0639,161.396 42.5,160C 39.5933,156.588 36.2599,153.754 32.5,151.5C 30.1458,148.465 28.6458,145.132 28,141.5C 29.9121,143.657 31.5787,145.991 33,148.5C 34.129,150.141 35.629,151.141 37.5,151.5 Z"/></g>
<g><path style="opacity:0.937" fill="#7ab778" d="M 133.5,150.5 C 134.043,150.56 134.376,150.893 134.5,151.5C 133.167,152.62 132.667,153.953 133,155.5C 134.353,154.315 135.52,152.981 136.5,151.5C 137.107,151.624 137.44,151.957 137.5,152.5C 135.854,154.812 133.854,156.812 131.5,158.5C 129.832,155.135 130.498,152.468 133.5,150.5 Z"/></g>
<g><path style="opacity:0.725" fill="#72b870" d="M 37.5,151.5 C 43.6581,156.144 49.9914,160.644 56.5,165C 60.6522,167.079 64.9855,168.579 69.5,169.5C 69.2648,170.097 68.7648,170.43 68,170.5C 61.8412,168.839 56.0078,166.506 50.5,163.5C 45.9767,159.733 41.6434,155.733 37.5,151.5 Z"/></g>
<g><path style="opacity:0.663" fill="#75ba74" d="M 37.5,136.5 C 42.0544,140.46 47.0544,143.96 52.5,147C 54.1392,148.519 55.8058,148.686 57.5,147.5C 61.1513,148.659 64.4846,150.326 67.5,152.5C 67.44,153.043 67.1067,153.376 66.5,153.5C 64.4172,151.751 62.0838,150.918 59.5,151C 66.2507,155.355 73.584,158.355 81.5,160C 87.4217,159.018 93.4217,158.684 99.5,159C 96.8569,160.72 93.5235,161.554 89.5,161.5C 69.8813,159.443 52.7146,151.776 38,138.5C 37.5357,137.906 37.369,137.239 37.5,136.5 Z"/></g>
<g><path style="opacity:0.36" fill="#70ba6f" d="M 98.5,161.5 C 95.5,162.833 92.5,162.833 89.5,161.5C 93.5235,161.554 96.8569,160.72 99.5,159C 93.4217,158.684 87.4217,159.018 81.5,160C 73.584,158.355 66.2507,155.355 59.5,151C 62.0838,150.918 64.4172,151.751 66.5,153.5C 67.1067,153.376 67.44,153.043 67.5,152.5C 75.7502,155.353 84.2502,157.02 93,157.5C 100.422,157.322 107.589,155.989 114.5,153.5C 114.56,154.043 114.893,154.376 115.5,154.5C 118.009,153.079 120.343,151.412 122.5,149.5C 122.833,149.833 123.167,150.167 123.5,150.5C 121.641,152.192 119.641,153.692 117.5,155C 110.633,157.524 104.3,159.69 98.5,161.5 Z"/></g>
<g><path style="opacity:0.792" fill="#73b872" d="M 134.5,139.5 C 131.789,146.414 127.122,151.58 120.5,155C 113.884,159.623 106.55,161.789 98.5,161.5C 104.3,159.69 110.633,157.524 117.5,155C 119.641,153.692 121.641,152.192 123.5,150.5C 123.167,150.167 122.833,149.833 122.5,149.5C 120.343,151.412 118.009,153.079 115.5,154.5C 114.893,154.376 114.56,154.043 114.5,153.5C 119.43,150.535 123.763,146.869 127.5,142.5C 127.369,143.239 127.536,143.906 128,144.5C 129.421,141.991 131.088,139.657 133,137.5C 133.717,138.044 134.217,138.711 134.5,139.5 Z"/></g>
<g><path style="opacity:0.663" fill="#74b872" d="M 32.5,151.5 C 36.2599,153.754 39.5933,156.588 42.5,160C 45.0639,161.396 47.7305,162.563 50.5,163.5C 51.2899,164.794 52.2899,165.961 53.5,167C 58.9841,169.108 64.3174,171.274 69.5,173.5C 54.5844,170.541 42.251,163.208 32.5,151.5 Z"/></g>
<g><path style="opacity:0.908" fill="#71b670" d="M 111.5,171.5 C 110.726,170.853 109.726,170.52 108.5,170.5C 106.97,170.64 105.97,171.307 105.5,172.5C 102.002,173.917 98.3352,174.583 94.5,174.5C 94.5,174.167 94.5,173.833 94.5,173.5C 96.5914,173.682 98.5914,173.348 100.5,172.5C 101.562,171.575 101.562,170.575 100.5,169.5C 103.899,168.984 107.232,168.15 110.5,167C 116.61,163.732 122.61,160.232 128.5,156.5C 129.614,157.723 129.781,159.056 129,160.5C 123.527,164.816 117.694,168.482 111.5,171.5 Z"/></g>
<g><path style="opacity:1" fill="#73c572" d="M 50.5,163.5 C 56.0078,166.506 61.8412,168.839 68,170.5C 68.7648,170.43 69.2648,170.097 69.5,169.5C 70.1667,169.833 70.8333,170.167 71.5,170.5C 75.5178,173.071 74.8512,174.071 69.5,173.5C 64.3174,171.274 58.9841,169.108 53.5,167C 52.2899,165.961 51.2899,164.794 50.5,163.5 Z"/></g>
<g><path style="opacity:0.992" fill="#77ae76" d="M 111.5,171.5 C 109.435,171.517 107.435,171.85 105.5,172.5C 105.97,171.307 106.97,170.64 108.5,170.5C 109.726,170.52 110.726,170.853 111.5,171.5 Z"/></g>
<g><path style="opacity:0.975" fill="#72b770" d="M 71.5,170.5 C 79.6471,170.92 87.6471,170.92 95.5,170.5C 95.4226,171.75 94.756,172.583 93.5,173C 93.7284,173.399 94.0618,173.565 94.5,173.5C 94.5,173.833 94.5,174.167 94.5,174.5C 86.007,175.971 77.6737,175.638 69.5,173.5C 74.8512,174.071 75.5178,173.071 71.5,170.5 Z"/></g>
<g><path style="opacity:1" fill="#68bf65" d="M 100.5,169.5 C 101.562,170.575 101.562,171.575 100.5,172.5C 98.5914,173.348 96.5914,173.682 94.5,173.5C 94.0618,173.565 93.7284,173.399 93.5,173C 94.756,172.583 95.4226,171.75 95.5,170.5C 97.2915,170.634 98.9582,170.301 100.5,169.5 Z"/></g>
</svg>
